# xmcd CD database file
#
# Track frame offsets:
#	150
#	15675
#	24100
#	32587
#	49394
#	64356
#	75117
#	77976
#	88342
#	107213
#	124060
#	139930
#
# Disc length: 2319 seconds
#
# Revision: 0
# Processed by: cddbd v1.4PL0 Copyright (c) Steve Scherf et al.
# Submitted via: CDex 1.51
#
DISCID=99090d0c
DTITLE=Joaquina - The foam and the mesh
DYEAR=1998
DGENRE=Country
TTITLE0=Fresno
TTITLE1=Moo hoo hoo
TTITLE2=Ridin'
TTITLE3=Superbowl
TTITLE4=El Camino
TTITLE5=Last of the cut n'pasters
TTITLE6=JDMJFU
TTITLE7=Big timber
TTITLE8=Child star
TTITLE9=The day the dogs took over
TTITLE10=Modesto
TTITLE11=The small cod shaves
EXTD=YEAR: 1998
EXTT0=
EXTT1=
EXTT2=
EXTT3=
EXTT4=
EXTT5=
EXTT6=
EXTT7=
EXTT8=
EXTT9=
EXTT10=
EXTT11=
PLAYORDER=
